<svg width="40" height="40" viewBox="0 0 40 40" fill="none" xmlns="http://www.w3.org/2000/svg">
<g filter="url(#filter0_n_10810_8142)">
<rect width="40" height="40" rx="5" fill="url(#paint0_linear_10810_8142)" fill-opacity="0.92"/>
<g filter="url(#filter1_d_10810_8142)">
<mask id="path-2-outside-1_10810_8142" maskUnits="userSpaceOnUse" x="8" y="8" width="28" height="23" fill="black">
<rect fill="white" x="8" y="8" width="28" height="23"/>
<path d="M9.58887 30.3662L8.59277 30.3516C8.60254 29.5703 8.63184 28.7207 8.68066 27.8027C8.73926 26.8848 8.77344 26.0352 8.7832 25.2539L9.07617 9.19922C9.68164 9.16992 10.3408 9.14062 11.0537 9.11133C11.7764 9.07227 12.5186 9.03809 13.2803 9.00879L32.6016 8.77441C32.9141 8.77441 33.2461 8.78418 33.5977 8.80371C33.959 8.82324 34.2861 8.87207 34.5791 8.9502C34.5791 9.27246 34.5498 9.6582 34.4912 10.1074C34.4424 10.5469 34.3643 11.0547 34.2568 11.6309L33.9785 14.1211C32.9727 14.248 31.8887 14.3213 30.7266 14.3408C29.5742 14.3604 28.4072 14.3701 27.2256 14.3701L19.9014 14.458C19.8428 15.1123 19.8086 15.6836 19.7988 16.1719C19.7891 16.6504 19.7744 17.1875 19.7549 17.7832C21.21 17.7637 22.6357 17.749 24.0322 17.7393C25.4287 17.7197 26.6592 17.71 27.7236 17.71C28.085 17.71 28.4512 17.7197 28.8223 17.7393C29.2031 17.7588 29.5693 17.8076 29.9209 17.8857C29.9209 18.3936 29.8525 19.0479 29.7158 19.8486C29.5791 20.6396 29.4277 21.4404 29.2617 22.251C28.5488 22.3193 27.8359 22.3682 27.123 22.3975C26.4199 22.4268 25.668 22.4512 24.8672 22.4707L19.5498 22.5L19.3447 27.9053C19.335 28.2568 19.3301 28.6084 19.3301 28.96C19.3301 29.3115 19.3057 29.6582 19.2568 30C18.9346 30.0098 18.417 30.0244 17.7041 30.0439C17.001 30.0732 16.2148 30.1025 15.3457 30.1318C14.4863 30.1709 13.6416 30.2051 12.8115 30.2344C11.9814 30.2734 11.2686 30.3027 10.6729 30.3223C10.0869 30.3516 9.72559 30.3662 9.58887 30.3662Z"/>
</mask>
<path d="M9.58887 30.3662L8.59277 30.3516C8.60254 29.5703 8.63184 28.7207 8.68066 27.8027C8.73926 26.8848 8.77344 26.0352 8.7832 25.2539L9.07617 9.19922C9.68164 9.16992 10.3408 9.14062 11.0537 9.11133C11.7764 9.07227 12.5186 9.03809 13.2803 9.00879L32.6016 8.77441C32.9141 8.77441 33.2461 8.78418 33.5977 8.80371C33.959 8.82324 34.2861 8.87207 34.5791 8.9502C34.5791 9.27246 34.5498 9.6582 34.4912 10.1074C34.4424 10.5469 34.3643 11.0547 34.2568 11.6309L33.9785 14.1211C32.9727 14.248 31.8887 14.3213 30.7266 14.3408C29.5742 14.3604 28.4072 14.3701 27.2256 14.3701L19.9014 14.458C19.8428 15.1123 19.8086 15.6836 19.7988 16.1719C19.7891 16.6504 19.7744 17.1875 19.7549 17.7832C21.21 17.7637 22.6357 17.749 24.0322 17.7393C25.4287 17.7197 26.6592 17.71 27.7236 17.71C28.085 17.71 28.4512 17.7197 28.8223 17.7393C29.2031 17.7588 29.5693 17.8076 29.9209 17.8857C29.9209 18.3936 29.8525 19.0479 29.7158 19.8486C29.5791 20.6396 29.4277 21.4404 29.2617 22.251C28.5488 22.3193 27.8359 22.3682 27.123 22.3975C26.4199 22.4268 25.668 22.4512 24.8672 22.4707L19.5498 22.5L19.3447 27.9053C19.335 28.2568 19.3301 28.6084 19.3301 28.96C19.3301 29.3115 19.3057 29.6582 19.2568 30C18.9346 30.0098 18.417 30.0244 17.7041 30.0439C17.001 30.0732 16.2148 30.1025 15.3457 30.1318C14.4863 30.1709 13.6416 30.2051 12.8115 30.2344C11.9814 30.2734 11.2686 30.3027 10.6729 30.3223C10.0869 30.3516 9.72559 30.3662 9.58887 30.3662Z" fill="white" fill-opacity="0.1" shape-rendering="crispEdges"/>
<path d="M9.58887 30.3662L9.58151 30.8662H9.58887V30.3662ZM8.59277 30.3516L8.09281 30.3453L8.08658 30.8442L8.58542 30.8515L8.59277 30.3516ZM8.68066 27.8027L8.18165 27.7709L8.18137 27.7762L8.68066 27.8027ZM8.7832 25.2539L8.28328 25.2448L8.28324 25.2477L8.7832 25.2539ZM9.07617 9.19922L9.05201 8.6998L8.58479 8.72241L8.57626 9.1901L9.07617 9.19922ZM11.0537 9.11133L11.0742 9.61095L11.0807 9.6106L11.0537 9.11133ZM13.2803 9.00879L13.2742 8.50865L13.2611 8.50916L13.2803 9.00879ZM32.6016 8.77441V8.27438L32.5955 8.27445L32.6016 8.77441ZM33.5977 8.80371L33.5699 9.30294L33.5707 9.30298L33.5977 8.80371ZM34.5791 8.9502H35.0791V8.56606L34.7079 8.46708L34.5791 8.9502ZM34.4912 10.1074L33.9953 10.0427L33.9943 10.0522L34.4912 10.1074ZM34.2568 11.6309L33.7653 11.5392L33.762 11.5572L33.7599 11.5753L34.2568 11.6309ZM33.9785 14.1211L34.0411 14.6172L34.4317 14.5679L34.4754 14.1766L33.9785 14.1211ZM30.7266 14.3408L30.7182 13.8409L30.7181 13.8409L30.7266 14.3408ZM27.2256 14.3701V13.8701L27.2196 13.8702L27.2256 14.3701ZM19.9014 14.458L19.8954 13.958L19.4437 13.9635L19.4034 14.4134L19.9014 14.458ZM19.7988 16.1719L20.2987 16.1821L20.2987 16.1819L19.7988 16.1719ZM19.7549 17.7832L19.2552 17.7668L19.238 18.2902L19.7616 18.2832L19.7549 17.7832ZM24.0322 17.7393L24.0357 18.2393L24.0392 18.2392L24.0322 17.7393ZM28.8223 17.7393L28.796 18.2386L28.7967 18.2386L28.8223 17.7393ZM29.9209 17.8857H30.4209V17.4847L30.0294 17.3976L29.9209 17.8857ZM29.7158 19.8486L30.2085 19.9338L30.2087 19.9328L29.7158 19.8486ZM29.2617 22.251L29.3094 22.7487L29.6774 22.7134L29.7516 22.3513L29.2617 22.251ZM27.123 22.3975L27.1025 21.8979L27.1022 21.8979L27.123 22.3975ZM24.8672 22.4707L24.8699 22.9708L24.8794 22.9706L24.8672 22.4707ZM19.5498 22.5L19.547 22L19.0683 22.0026L19.0502 22.481L19.5498 22.5ZM19.3447 27.9053L18.8451 27.8863L18.8449 27.8914L19.3447 27.9053ZM19.2568 30L19.272 30.4998L19.6923 30.487L19.7518 30.0707L19.2568 30ZM17.7041 30.0439L17.6904 29.5441L17.6833 29.5444L17.7041 30.0439ZM15.3457 30.1318L15.3289 29.6321L15.323 29.6324L15.3457 30.1318ZM12.8115 30.2344L12.7939 29.7347L12.788 29.7349L12.8115 30.2344ZM10.6729 30.3223L10.6565 29.8225L10.6479 29.8229L10.6729 30.3223ZM9.58887 30.3662L9.59622 29.8663L8.60013 29.8516L8.59277 30.3516L8.58542 30.8515L9.58152 30.8662L9.58887 30.3662ZM8.59277 30.3516L9.09273 30.3578C9.1024 29.5844 9.13143 28.7416 9.17996 27.8293L8.68066 27.8027L8.18137 27.7762C8.13224 28.6998 8.10268 29.5562 8.09281 30.3453L8.59277 30.3516ZM8.68066 27.8027L9.17965 27.8346C9.23869 26.9095 9.27327 26.0513 9.28316 25.2602L8.7832 25.2539L8.28324 25.2477C8.2736 26.019 8.23982 26.86 8.18168 27.7709L8.68066 27.8027ZM8.7832 25.2539L9.28312 25.263L9.57609 9.20834L9.07617 9.19922L8.57626 9.1901L8.28329 25.2448L8.7832 25.2539ZM9.07617 9.19922L9.10034 9.69864C9.70441 9.6694 10.3624 9.64016 11.0742 9.61091L11.0537 9.11133L11.0332 8.61175C10.3193 8.64109 9.65888 8.67044 9.05201 8.6998L9.07617 9.19922ZM11.0537 9.11133L11.0807 9.6106C11.8006 9.57168 12.5402 9.53762 13.2995 9.50842L13.2803 9.00879L13.2611 8.50916C12.4969 8.53855 11.7521 8.57285 11.0267 8.61206L11.0537 9.11133ZM13.2803 9.00879L13.2863 9.50875L32.6076 9.27438L32.6016 8.77441L32.5955 8.27445L13.2742 8.50883L13.2803 9.00879ZM32.6016 8.77441V9.27441C32.9037 9.27441 33.2265 9.28386 33.5699 9.30294L33.5977 8.80371L33.6254 8.30448C33.2657 8.2845 32.9244 8.27441 32.6016 8.27441V8.77441ZM33.5977 8.80371L33.5707 9.30298C33.904 9.321 34.1963 9.36558 34.4503 9.43331L34.5791 8.9502L34.7079 8.46708C34.376 8.37856 34.014 8.32549 33.6246 8.30444L33.5977 8.80371ZM34.5791 8.9502H34.0791C34.0791 9.24414 34.0522 9.60711 33.9954 10.0428L34.4912 10.1074L34.987 10.1721C35.0474 9.7093 35.0791 9.30079 35.0791 8.9502H34.5791ZM34.4912 10.1074L33.9943 10.0522C33.9472 10.4763 33.8712 10.9715 33.7653 11.5392L34.2568 11.6309L34.7484 11.7225C34.8574 11.1379 34.9376 10.6175 34.9882 10.1626L34.4912 10.1074ZM34.2568 11.6309L33.7599 11.5753L33.4816 14.0656L33.9785 14.1211L34.4754 14.1766L34.7537 11.6864L34.2568 11.6309ZM33.9785 14.1211L33.9159 13.625C32.9304 13.7494 31.8647 13.8216 30.7182 13.8409L30.7266 14.3408L30.735 14.8407C31.9126 14.821 33.0149 14.7467 34.0411 14.6172L33.9785 14.1211ZM30.7266 14.3408L30.7181 13.8409C29.5686 13.8604 28.4045 13.8701 27.2256 13.8701V14.3701V14.8701C28.41 14.8701 29.5798 14.8603 30.735 14.8407L30.7266 14.3408ZM27.2256 14.3701L27.2196 13.8702L19.8954 13.958L19.9014 14.458L19.9074 14.958L27.2316 14.8701L27.2256 14.3701ZM19.9014 14.458L19.4034 14.4134C19.3441 15.0756 19.309 15.6589 19.2989 16.1619L19.7988 16.1719L20.2987 16.1819C20.3082 15.7083 20.3415 15.149 20.3994 14.5026L19.9014 14.458ZM19.7988 16.1719L19.2989 16.1617C19.2892 16.6377 19.2746 17.1727 19.2552 17.7668L19.7549 17.7832L20.2546 17.7996C20.2742 17.2023 20.2889 16.6631 20.2987 16.1821L19.7988 16.1719ZM19.7549 17.7832L19.7616 18.2832C21.2156 18.2636 22.6404 18.249 24.0357 18.2392L24.0322 17.7393L24.0287 17.2393C22.6311 17.249 21.2043 17.2637 19.7482 17.2832L19.7549 17.7832ZM24.0322 17.7393L24.0392 18.2392C25.434 18.2197 26.6621 18.21 27.7236 18.21V17.71V17.21C26.6563 17.21 25.4234 17.2198 24.0252 17.2393L24.0322 17.7393ZM27.7236 17.71V18.21C28.076 18.21 28.4334 18.2195 28.796 18.2386L28.8223 17.7393L28.8485 17.2399C28.4689 17.22 28.094 17.21 27.7236 17.21V17.71ZM28.8223 17.7393L28.7967 18.2386C29.1513 18.2568 29.4897 18.3021 29.8124 18.3738L29.9209 17.8857L30.0294 17.3976C29.649 17.3131 29.255 17.2608 28.8479 17.2399L28.8223 17.7393ZM29.9209 17.8857H29.4209C29.4209 18.3538 29.3574 18.9771 29.223 19.7645L29.7158 19.8486L30.2087 19.9328C30.3477 19.1186 30.4209 18.4333 30.4209 17.8857H29.9209ZM29.7158 19.8486L29.2231 19.7635C29.0873 20.5493 28.9369 21.345 28.7719 22.1507L29.2617 22.251L29.7516 22.3513C29.9186 21.5359 30.0709 20.73 30.2085 19.9338L29.7158 19.8486ZM29.2617 22.251L29.214 21.7533C28.5101 21.8208 27.8063 21.869 27.1025 21.8979L27.123 22.3975L27.1436 22.897C27.8656 22.8674 28.5875 22.8179 29.3094 22.7487L29.2617 22.251ZM27.123 22.3975L27.1022 21.8979C26.4023 21.9271 25.6533 21.9514 24.855 21.9709L24.8672 22.4707L24.8794 22.9706C25.6827 22.951 26.4375 22.9265 27.1439 22.897L27.123 22.3975ZM24.8672 22.4707L24.8644 21.9707L19.547 22L19.5498 22.5L19.5526 23L24.8699 22.9707L24.8672 22.4707ZM19.5498 22.5L19.0502 22.481L18.8451 27.8863L19.3447 27.9053L19.8444 27.9242L20.0494 22.519L19.5498 22.5ZM19.3447 27.9053L18.8449 27.8914C18.835 28.2476 18.8301 28.6038 18.8301 28.96H19.3301H19.8301C19.8301 28.613 19.8349 28.2661 19.8445 27.9192L19.3447 27.9053ZM19.3301 28.96H18.8301C18.8301 29.2883 18.8073 29.6113 18.7619 29.9293L19.2568 30L19.7518 30.0707C19.804 29.7051 19.8301 29.3348 19.8301 28.96H19.3301ZM19.2568 30L19.2417 29.5002C18.9202 29.51 18.4032 29.5246 17.6904 29.5441L17.7041 30.0439L17.7178 30.5438C18.4307 30.5242 18.9489 30.5096 19.272 30.4998L19.2568 30ZM17.7041 30.0439L17.6833 29.5444C16.9817 29.5736 16.197 29.6029 15.3289 29.6321L15.3457 30.1318L15.3625 30.6316C16.2327 30.6022 17.0202 30.5729 17.7249 30.5435L17.7041 30.0439ZM15.3457 30.1318L15.323 29.6324C14.4653 29.6713 13.6222 29.7055 12.7939 29.7347L12.8115 30.2344L12.8292 30.7341C13.661 30.7047 14.5074 30.6705 15.3684 30.6313L15.3457 30.1318ZM12.8115 30.2344L12.788 29.7349C11.9595 29.7739 11.2491 29.8031 10.6565 29.8225L10.6729 30.3223L10.6892 30.822C11.288 30.8024 12.0034 30.773 12.835 30.7338L12.8115 30.2344ZM10.6729 30.3223L10.6479 29.8229C10.0567 29.8524 9.71012 29.8662 9.58887 29.8662V30.3662V30.8662C9.74105 30.8662 10.1171 30.8507 10.6978 30.8216L10.6729 30.3223Z" fill="#4130B5" fill-opacity="0.69" mask="url(#path-2-outside-1_10810_8142)"/>
</g>
</g>
<defs>
<filter id="filter0_n_10810_8142" x="0" y="0" width="40" height="40" filterUnits="userSpaceOnUse" color-interpolation-filters="sRGB">
<feFlood flood-opacity="0" result="BackgroundImageFix"/>
<feBlend mode="normal" in="SourceGraphic" in2="BackgroundImageFix" result="shape"/>
<feTurbulence type="fractalNoise" baseFrequency="2 2" stitchTiles="stitch" numOctaves="3" result="noise" seed="4804" />
<feColorMatrix in="noise" type="luminanceToAlpha" result="alphaNoise" />
<feComponentTransfer in="alphaNoise" result="coloredNoise1">
<feFuncA type="discrete" tableValues="1 1 1 1 1 1 1 1 1 1 1 1 1 1 1 1 1 1 1 1 1 1 1 1 1 1 1 1 1 1 1 1 1 1 1 1 1 1 1 1 1 1 1 1 1 1 1 1 1 1 1 0 0 0 0 0 0 0 0 0 0 0 0 0 0 0 0 0 0 0 0 0 0 0 0 0 0 0 0 0 0 0 0 0 0 0 0 0 0 0 0 0 0 0 0 0 0 0 0 0 "/>
</feComponentTransfer>
<feComposite operator="in" in2="shape" in="coloredNoise1" result="noise1Clipped" />
<feFlood flood-color="rgba(0, 0, 0, 0.01)" result="color1Flood" />
<feComposite operator="in" in2="noise1Clipped" in="color1Flood" result="color1" />
<feMerge result="effect1_noise_10810_8142">
<feMergeNode in="shape" />
<feMergeNode in="color1" />
</feMerge>
</filter>
<filter id="filter1_d_10810_8142" x="4.08655" y="8.27438" width="34.9926" height="30.5918" filterUnits="userSpaceOnUse" color-interpolation-filters="sRGB">
<feFlood flood-opacity="0" result="BackgroundImageFix"/>
<feColorMatrix in="SourceAlpha" type="matrix" values="0 0 0 0 0 0 0 0 0 0 0 0 0 0 0 0 0 0 127 0" result="hardAlpha"/>
<feOffset dy="4"/>
<feGaussianBlur stdDeviation="2"/>
<feComposite in2="hardAlpha" operator="out"/>
<feColorMatrix type="matrix" values="0 0 0 0 0 0 0 0 0 0 0 0 0 0 0 0 0 0 0.15 0"/>
<feBlend mode="normal" in2="BackgroundImageFix" result="effect1_dropShadow_10810_8142"/>
<feBlend mode="normal" in="BackgroundImageFix" in2="effect1_dropShadow_10810_8142" result="BackgroundImageFix"/>
<feBlend mode="normal" in="SourceGraphic" in2="BackgroundImageFix" result="shape"/>
</filter>
<linearGradient id="paint0_linear_10810_8142" x1="40" y1="-5.5" x2="-2.5" y2="43.5" gradientUnits="userSpaceOnUse">
<stop stop-color="#1677FF"/>
<stop offset="1" stop-color="#0D4799"/>
</linearGradient>
</defs>
</svg>
