<svg width="160" height="160" viewBox="0 0 160 160" fill="none" xmlns="http://www.w3.org/2000/svg">
<g filter="url(#filter0_n_10949_5203)">
<rect width="160" height="160" rx="15" fill="url(#paint0_linear_10949_5203)" fill-opacity="0.92"/>
<g filter="url(#filter1_d_10949_5203)">
<mask id="path-2-outside-1_10949_5203" maskUnits="userSpaceOnUse" x="27.5" y="33.5" width="113" height="95" fill="black">
<rect fill="white" x="27.5" y="33.5" width="113" height="95"/>
<path d="M32.8125 127.062L28.5625 127C28.6042 123.667 28.7292 120.042 28.9375 116.125C29.1875 112.208 29.3333 108.583 29.375 105.25L30.625 36.75C33.2083 36.625 36.0208 36.5 39.0625 36.375C42.1458 36.2083 45.3125 36.0625 48.5625 35.9375L131 34.9375C132.333 34.9375 133.75 34.9792 135.25 35.0625C136.792 35.1458 138.188 35.3542 139.438 35.6875C139.438 37.0625 139.312 38.7083 139.062 40.625C138.854 42.5 138.521 44.6667 138.062 47.125L136.875 57.75C132.583 58.2917 127.958 58.6042 123 58.6875C118.083 58.7708 113.104 58.8125 108.062 58.8125L76.8125 59.1875C76.5625 61.9792 76.4167 64.4167 76.375 66.5C76.3333 68.5417 76.2708 70.8333 76.1875 73.375C82.3958 73.2917 88.4792 73.2292 94.4375 73.1875C100.396 73.1042 105.646 73.0625 110.188 73.0625C111.729 73.0625 113.292 73.1042 114.875 73.1875C116.5 73.2708 118.062 73.4792 119.562 73.8125C119.562 75.9792 119.271 78.7708 118.688 82.1875C118.104 85.5625 117.458 88.9792 116.75 92.4375C113.708 92.7292 110.667 92.9375 107.625 93.0625C104.625 93.1875 101.417 93.2917 98 93.375L75.3125 93.5L74.4375 116.562C74.3958 118.062 74.375 119.562 74.375 121.062C74.375 122.562 74.2708 124.042 74.0625 125.5C72.6875 125.542 70.4792 125.604 67.4375 125.688C64.4375 125.812 61.0833 125.938 57.375 126.062C53.7083 126.229 50.1042 126.375 46.5625 126.5C43.0208 126.667 39.9792 126.792 37.4375 126.875C34.9375 127 33.3958 127.062 32.8125 127.062Z"/>
</mask>
<path d="M32.8125 127.062L28.5625 127C28.6042 123.667 28.7292 120.042 28.9375 116.125C29.1875 112.208 29.3333 108.583 29.375 105.25L30.625 36.75C33.2083 36.625 36.0208 36.5 39.0625 36.375C42.1458 36.2083 45.3125 36.0625 48.5625 35.9375L131 34.9375C132.333 34.9375 133.75 34.9792 135.25 35.0625C136.792 35.1458 138.188 35.3542 139.438 35.6875C139.438 37.0625 139.312 38.7083 139.062 40.625C138.854 42.5 138.521 44.6667 138.062 47.125L136.875 57.75C132.583 58.2917 127.958 58.6042 123 58.6875C118.083 58.7708 113.104 58.8125 108.062 58.8125L76.8125 59.1875C76.5625 61.9792 76.4167 64.4167 76.375 66.5C76.3333 68.5417 76.2708 70.8333 76.1875 73.375C82.3958 73.2917 88.4792 73.2292 94.4375 73.1875C100.396 73.1042 105.646 73.0625 110.188 73.0625C111.729 73.0625 113.292 73.1042 114.875 73.1875C116.5 73.2708 118.062 73.4792 119.562 73.8125C119.562 75.9792 119.271 78.7708 118.688 82.1875C118.104 85.5625 117.458 88.9792 116.75 92.4375C113.708 92.7292 110.667 92.9375 107.625 93.0625C104.625 93.1875 101.417 93.2917 98 93.375L75.3125 93.5L74.4375 116.562C74.3958 118.062 74.375 119.562 74.375 121.062C74.375 122.562 74.2708 124.042 74.0625 125.5C72.6875 125.542 70.4792 125.604 67.4375 125.688C64.4375 125.812 61.0833 125.938 57.375 126.062C53.7083 126.229 50.1042 126.375 46.5625 126.5C43.0208 126.667 39.9792 126.792 37.4375 126.875C34.9375 127 33.3958 127.062 32.8125 127.062Z" fill="white" fill-opacity="0.6" shape-rendering="crispEdges"/>
<path d="M32.8125 127.062L32.8051 127.562H32.8125V127.062ZM28.5625 127L28.0625 126.994L28.0563 127.493L28.5551 127.5L28.5625 127ZM28.9375 116.125L28.4385 116.093L28.4382 116.098L28.9375 116.125ZM29.375 105.25L28.8751 105.241L28.875 105.244L29.375 105.25ZM30.625 36.75L30.6008 36.2506L30.1336 36.2732L30.1251 36.7409L30.625 36.75ZM39.0625 36.375L39.083 36.8746L39.0895 36.8743L39.0625 36.375ZM48.5625 35.9375L48.5564 35.4374L48.5433 35.4379L48.5625 35.9375ZM131 34.9375V34.4375L130.994 34.4375L131 34.9375ZM135.25 35.0625L135.222 35.5617L135.223 35.5618L135.25 35.0625ZM139.438 35.6875H139.938V35.3034L139.566 35.2044L139.438 35.6875ZM139.062 40.625L138.567 40.5603L138.566 40.5698L139.062 40.625ZM138.062 47.125L137.571 47.0334L137.568 47.0513L137.566 47.0695L138.062 47.125ZM136.875 57.75L136.938 58.2461L137.328 58.1968L137.372 57.8055L136.875 57.75ZM123 58.6875L122.992 58.1876H122.992L123 58.6875ZM108.062 58.8125V58.3125L108.057 58.3125L108.062 58.8125ZM76.8125 59.1875L76.8065 58.6875L76.3548 58.693L76.3145 59.1429L76.8125 59.1875ZM76.375 66.5L76.8749 66.5102L76.8749 66.51L76.375 66.5ZM76.1875 73.375L75.6878 73.3586L75.6706 73.882L76.1942 73.875L76.1875 73.375ZM94.4375 73.1875L94.441 73.6875L94.4445 73.6875L94.4375 73.1875ZM114.875 73.1875L114.849 73.6868L114.849 73.6868L114.875 73.1875ZM119.562 73.8125H120.062V73.4114L119.671 73.3244L119.562 73.8125ZM118.688 82.1875L119.18 82.2727L119.18 82.2716L118.688 82.1875ZM116.75 92.4375L116.798 92.9352L117.166 92.8999L117.24 92.5378L116.75 92.4375ZM107.625 93.0625L107.604 92.5629L107.604 92.5629L107.625 93.0625ZM98 93.375L98.0028 93.8751L98.0122 93.8748L98 93.375ZM75.3125 93.5L75.3097 93L74.831 93.0026L74.8129 93.481L75.3125 93.5ZM74.4375 116.562L73.9378 116.544L73.9377 116.549L74.4375 116.562ZM74.0625 125.5L74.0776 126L74.498 125.987L74.5575 125.571L74.0625 125.5ZM67.4375 125.688L67.4238 125.188L67.4167 125.188L67.4375 125.688ZM57.375 126.062L57.3582 125.563L57.3523 125.563L57.375 126.062ZM46.5625 126.5L46.5449 126L46.539 126.001L46.5625 126.5ZM37.4375 126.875L37.4211 126.375L37.4125 126.376L37.4375 126.875ZM32.8125 127.062L32.8199 126.563L28.5699 126.5L28.5625 127L28.5551 127.5L32.8051 127.562L32.8125 127.062ZM28.5625 127L29.0625 127.006C29.104 123.681 29.2288 120.063 29.4368 116.152L28.9375 116.125L28.4382 116.098C28.2296 120.021 28.1043 123.653 28.0625 126.994L28.5625 127ZM28.9375 116.125L29.4365 116.157C29.6869 112.233 29.8332 108.599 29.875 105.256L29.375 105.25L28.875 105.244C28.8335 108.567 28.6881 112.184 28.4385 116.093L28.9375 116.125ZM29.375 105.25L29.8749 105.259L31.1249 36.7591L30.625 36.75L30.1251 36.7409L28.8751 105.241L29.375 105.25ZM30.625 36.75L30.6492 37.2494C33.2311 37.1245 36.0424 36.9995 39.083 36.8746L39.0625 36.375L39.042 35.8754C35.9993 36.0005 33.1856 36.1255 30.6008 36.2506L30.625 36.75ZM39.0625 36.375L39.0895 36.8743C42.1701 36.7077 45.3342 36.562 48.5817 36.4371L48.5625 35.9375L48.5433 35.4379C45.2908 35.563 42.1216 35.7089 39.0355 35.8757L39.0625 36.375ZM48.5625 35.9375L48.5686 36.4375L131.006 35.4375L131 34.9375L130.994 34.4375L48.5564 35.4375L48.5625 35.9375ZM131 34.9375V35.4375C132.323 35.4375 133.73 35.4788 135.222 35.5617L135.25 35.0625L135.278 34.5633C133.77 34.4795 132.344 34.4375 131 34.4375V34.9375ZM135.25 35.0625L135.223 35.5618C136.737 35.6436 138.098 35.8477 139.309 36.1706L139.438 35.6875L139.566 35.2044C138.277 34.8607 136.847 34.6481 135.277 34.5632L135.25 35.0625ZM139.438 35.6875H138.938C138.938 37.0342 138.815 38.6572 138.567 40.5603L139.062 40.625L139.558 40.6897C139.81 38.7594 139.938 37.0908 139.938 35.6875H139.438ZM139.062 40.625L138.566 40.5698C138.359 42.4294 138.028 44.5835 137.571 47.0334L138.062 47.125L138.554 47.2166C139.014 44.7499 139.349 42.5706 139.559 40.6802L139.062 40.625ZM138.062 47.125L137.566 47.0695L136.378 57.6945L136.875 57.75L137.372 57.8055L138.559 47.1805L138.062 47.125ZM136.875 57.75L136.812 57.2539C132.541 57.793 127.934 58.1045 122.992 58.1876L123 58.6875L123.008 59.1874C127.982 59.1038 132.626 58.7903 136.938 58.2461L136.875 57.75ZM123 58.6875L122.992 58.1876C118.078 58.2709 113.101 58.3125 108.062 58.3125V58.8125V59.3125C113.107 59.3125 118.089 59.2708 123.008 59.1874L123 58.6875ZM108.062 58.8125L108.057 58.3125L76.8065 58.6875L76.8125 59.1875L76.8185 59.6875L108.068 59.3125L108.062 58.8125ZM76.8125 59.1875L76.3145 59.1429C76.0638 61.9424 75.9171 64.392 75.8751 66.49L76.375 66.5L76.8749 66.51C76.9163 64.4414 77.0612 62.0159 77.3105 59.2321L76.8125 59.1875ZM76.375 66.5L75.8751 66.4898C75.8335 68.529 75.771 70.8185 75.6878 73.3586L76.1875 73.375L76.6872 73.3914C76.7706 70.8481 76.8332 68.5544 76.8749 66.5102L76.375 66.5ZM76.1875 73.375L76.1942 73.875C82.4015 73.7916 88.4838 73.7291 94.441 73.6875L94.4375 73.1875L94.434 72.6875C88.4746 72.7292 82.3902 72.7917 76.1808 72.875L76.1875 73.375ZM94.4375 73.1875L94.4445 73.6875C100.401 73.6041 105.649 73.5625 110.188 73.5625V73.0625V72.5625C105.643 72.5625 100.391 72.6042 94.4305 72.6875L94.4375 73.1875ZM110.188 73.0625V73.5625C111.72 73.5625 113.274 73.6039 114.849 73.6868L114.875 73.1875L114.901 72.6882C113.309 72.6044 111.738 72.5625 110.188 72.5625V73.0625ZM114.875 73.1875L114.849 73.6868C116.448 73.7688 117.983 73.9737 119.454 74.3006L119.562 73.8125L119.671 73.3244C118.142 72.9847 116.552 72.7728 114.901 72.6882L114.875 73.1875ZM119.562 73.8125H119.062C119.062 75.9394 118.776 78.7001 118.195 82.1034L118.688 82.1875L119.18 82.2716C119.766 78.8416 120.062 76.0189 120.062 73.8125H119.562ZM118.688 82.1875L118.195 82.1023C117.612 85.4721 116.967 88.8837 116.26 92.3372L116.75 92.4375L117.24 92.5378C117.949 89.0746 118.596 85.6529 119.18 82.2727L118.688 82.1875ZM116.75 92.4375L116.702 91.9398C113.67 92.2306 110.637 92.4383 107.604 92.5629L107.625 93.0625L107.646 93.5621C110.696 93.4367 113.747 93.2278 116.798 92.9352L116.75 92.4375ZM107.625 93.0625L107.604 92.5629C104.607 92.6878 101.402 92.7919 97.9878 92.8752L98 93.375L98.0122 93.8748C101.431 93.7915 104.643 93.6872 107.646 93.5621L107.625 93.0625ZM98 93.375L97.9972 92.875L75.3097 93L75.3125 93.5L75.3153 94L98.0028 93.875L98 93.375ZM75.3125 93.5L74.8129 93.481L73.9379 116.544L74.4375 116.562L74.9371 116.581L75.8121 93.519L75.3125 93.5ZM74.4375 116.562L73.9377 116.549C73.8959 118.053 73.875 119.558 73.875 121.062H74.375H74.875C74.875 119.567 74.8958 118.072 74.9373 116.576L74.4375 116.562ZM74.375 121.062H73.875C73.875 122.539 73.7725 123.995 73.5675 125.429L74.0625 125.5L74.5575 125.571C74.7692 124.089 74.875 122.586 74.875 121.062H74.375ZM74.0625 125.5L74.0474 125C72.6731 125.042 70.4654 125.104 67.4238 125.188L67.4375 125.688L67.4512 126.187C70.4929 126.104 72.7019 126.041 74.0776 126L74.0625 125.5ZM67.4375 125.688L67.4167 125.188C64.4183 125.313 61.0655 125.438 57.3582 125.563L57.375 126.062L57.3918 126.562C61.1012 126.437 64.4567 126.312 67.4583 126.187L67.4375 125.688ZM57.375 126.062L57.3523 125.563C53.6873 125.73 50.0848 125.875 46.5449 126L46.5625 126.5L46.5801 127C50.1236 126.875 53.7294 126.729 57.3977 126.562L57.375 126.062ZM46.5625 126.5L46.539 126.001C42.9989 126.167 39.9597 126.292 37.4211 126.375L37.4375 126.875L37.4539 127.375C39.9986 127.291 43.0428 127.166 46.586 126.999L46.5625 126.5ZM37.4375 126.875L37.4125 126.376C34.9073 126.501 33.3804 126.562 32.8125 126.562V127.062V127.562C33.4113 127.562 34.9677 127.499 37.4625 127.374L37.4375 126.875Z" fill="#4130B5" fill-opacity="0.69" mask="url(#path-2-outside-1_10949_5203)"/>
</g>
</g>
<defs>
<filter id="filter0_n_10949_5203" x="0" y="0" width="160" height="160" filterUnits="userSpaceOnUse" color-interpolation-filters="sRGB">
<feFlood flood-opacity="0" result="BackgroundImageFix"/>
<feBlend mode="normal" in="SourceGraphic" in2="BackgroundImageFix" result="shape"/>
<feTurbulence type="fractalNoise" baseFrequency="2 2" stitchTiles="stitch" numOctaves="3" result="noise" seed="4804" />
<feColorMatrix in="noise" type="luminanceToAlpha" result="alphaNoise" />
<feComponentTransfer in="alphaNoise" result="coloredNoise1">
<feFuncA type="discrete" tableValues="1 1 1 1 1 1 1 1 1 1 1 1 1 1 1 1 1 1 1 1 1 1 1 1 1 1 1 1 1 1 1 1 1 1 1 1 1 1 1 1 1 1 1 1 1 1 1 1 1 1 1 0 0 0 0 0 0 0 0 0 0 0 0 0 0 0 0 0 0 0 0 0 0 0 0 0 0 0 0 0 0 0 0 0 0 0 0 0 0 0 0 0 0 0 0 0 0 0 0 0 "/>
</feComponentTransfer>
<feComposite operator="in" in2="shape" in="coloredNoise1" result="noise1Clipped" />
<feFlood flood-color="rgba(0, 0, 0, 0.01)" result="color1Flood" />
<feComposite operator="in" in2="noise1Clipped" in="color1Flood" result="color1" />
<feMerge result="effect1_noise_10949_5203">
<feMergeNode in="shape" />
<feMergeNode in="color1" />
</feMerge>
</filter>
<filter id="filter1_d_10949_5203" x="24.0563" y="34.4374" width="119.881" height="101.125" filterUnits="userSpaceOnUse" color-interpolation-filters="sRGB">
<feFlood flood-opacity="0" result="BackgroundImageFix"/>
<feColorMatrix in="SourceAlpha" type="matrix" values="0 0 0 0 0 0 0 0 0 0 0 0 0 0 0 0 0 0 127 0" result="hardAlpha"/>
<feOffset dy="4"/>
<feGaussianBlur stdDeviation="2"/>
<feComposite in2="hardAlpha" operator="out"/>
<feColorMatrix type="matrix" values="0 0 0 0 0 0 0 0 0 0 0 0 0 0 0 0 0 0 0.15 0"/>
<feBlend mode="normal" in2="BackgroundImageFix" result="effect1_dropShadow_10949_5203"/>
<feBlend mode="normal" in="BackgroundImageFix" in2="effect1_dropShadow_10949_5203" result="BackgroundImageFix"/>
<feBlend mode="normal" in="SourceGraphic" in2="BackgroundImageFix" result="shape"/>
</filter>
<linearGradient id="paint0_linear_10949_5203" x1="160" y1="-22" x2="-9.99999" y2="174" gradientUnits="userSpaceOnUse">
<stop stop-color="#1677FF"/>
<stop offset="1" stop-color="#0D4799"/>
</linearGradient>
</defs>
</svg>
